# xmcd
#
# Track frame offsets:
#	150
#	9789
#	21336
#	34020
#	47648
#	59403
#	70603
#	82671
#	97908
#	110906
#	123423
#	132689
#
# Disc length: 1920 seconds
#
# Revision: 1
# Processed by: cddbd v1.5.2PL0 Copyright (c) Steve Scherf et al.
# Submitted via: EasyCDDAExtractor 16.0.6.1
#
DISCID=96077e0c
DTITLE=Peter Kent - I Won't Forget You - A Tribute To Jim Reeves
DYEAR=2015
DGENRE=Country
TTITLE0=There's A Heartache Following Me
TTITLE1=He'll Have To Go
TTITLE2=Distant Drums
TTITLE3=I Fall To Pieces
TTITLE4=I'll Fly Away
TTITLE5=Welcome To My World
TTITLE6=I Love You Because
TTITLE7=Blue Side Of Lonesome
TTITLE8=Four Walls
TTITLE9=Just Call Me Lonesome
TTITLE10=I Won't Forget You
TTITLE11=Take My Hand Preciouse Lord
EXTD=
EXTT0=
EXTT1=
EXTT2=
EXTT3=
EXTT4=
EXTT5=
EXTT6=
EXTT7=
EXTT8=
EXTT9=
EXTT10=
EXTT11=
PLAYORDER=
